<svg width="512" height="512" viewBox="0 0 512 512" fill="none" xmlns="http://www.w3.org/2000/svg">
<path fill-rule="evenodd" clip-rule="evenodd" d="M299.532 506H256V254.756H506V488.587V506H493.562H396.547H360.478H311.97H299.532ZM268.438 267.194H506V299.532H299.532V506H268.438V267.194ZM506 488.587V453.761H457.493V506H493.562V488.587H506ZM506 406.498V441.323H445.055V506H408.985V406.498H506ZM506 394.06V359.234H360.478V506H396.547V394.06H506ZM408.985 506H396.547H445.055H408.985ZM506 311.97V346.796H348.04V506H311.97V311.97H506Z" fill="white"/>
<path fill-rule="evenodd" clip-rule="evenodd" d="M101.725 356.746V344.308H158.363C189.275 344.308 214.333 369.367 214.333 400.279C214.333 431.19 189.275 456.249 158.363 456.249H6V443.811H158.363C182.405 443.811 201.896 424.321 201.896 400.279C201.896 376.236 182.405 356.746 158.363 356.746H101.725ZM157.119 488.587H6V501.025H158.363V501.017C213.431 500.351 257.866 455.504 257.866 400.279C257.866 344.638 212.76 299.532 157.119 299.532V305.751V311.97C205.891 311.97 245.428 351.507 245.428 400.279C245.428 449.05 205.891 488.587 157.119 488.587Z" fill="white"/>
<path fill-rule="evenodd" clip-rule="evenodd" d="M110.478 311.97C86.4354 311.97 66.9453 331.46 66.9453 355.502C66.9453 379.545 86.4354 399.035 110.478 399.035H163.96V411.473H110.478C79.5662 411.473 54.5075 386.414 54.5075 355.502C54.5075 325.007 78.8968 300.207 109.234 299.546V299.532H256V311.97H110.478Z" fill="white"/>
<path d="M20.9254 355.502C20.9254 306.731 60.4624 267.194 109.234 267.194H256V254.756H109.234C53.5932 254.756 8.48756 299.862 8.48756 355.502C8.48756 411.143 53.5932 456.249 109.234 456.249V443.811C60.4624 443.811 20.9254 404.274 20.9254 355.502Z" fill="white"/>
<path fill-rule="evenodd" clip-rule="evenodd" d="M492.014 149.035H456.327H443.406H406.5H381.622C371.318 149.035 362.965 140.682 362.965 130.378C362.965 120.074 371.318 111.721 381.622 111.721H406.5H443.776H456.634H492.014H504.61H506V99.2836H502.082H489.187H452.536H438.767H381.622C364.449 99.2836 350.527 113.205 350.527 130.378C350.527 147.551 364.449 161.473 381.622 161.473H438.092H451.993H489.187H502.082H506V149.035H504.61H492.014ZM381 64.4577C344.937 64.4577 315.701 93.6928 315.701 129.756C315.701 165.82 344.937 195.055 381 195.055H423.196H472.998H487.883H506V207.493H479.216H462.764H381.622V207.49C381.415 207.492 381.207 207.493 381 207.493C338.067 207.493 303.264 172.689 303.264 129.756C303.264 86.8236 338.067 52.0199 381 52.0199C381.207 52.0199 381.415 52.0207 381.622 52.0223V52.0199H461.563H478.219H506V64.4577H487.114H472.103H423.196H381ZM269.682 130.378C269.682 68.5552 319.799 18.4378 381.622 18.4378H435.902H506V6H381.622C312.93 6 257.244 61.686 257.244 130.378C257.244 199.07 312.93 254.756 381.622 254.756H506V242.318H435.902H381.622C319.799 242.318 269.682 192.201 269.682 130.378Z" fill="white"/>
<path fill-rule="evenodd" clip-rule="evenodd" d="M130.378 244.756C193.547 244.756 244.756 193.547 244.756 130.378C244.756 67.2088 193.547 16 130.378 16C67.2088 16 16 67.2088 16 130.378C16 193.547 67.2088 244.756 130.378 244.756ZM130.378 254.756C199.07 254.756 254.756 199.07 254.756 130.378C254.756 61.686 199.07 6 130.378 6C61.686 6 6 61.686 6 130.378C6 199.07 61.686 254.756 130.378 254.756Z" fill="white"/>
<path fill-rule="evenodd" clip-rule="evenodd" d="M129.756 197.493C167.166 197.493 197.493 167.166 197.493 129.756C197.493 92.3465 167.166 62.0199 129.756 62.0199C92.3465 62.0199 62.0199 92.3465 62.0199 129.756C62.0199 167.166 92.3465 197.493 129.756 197.493ZM129.756 207.493C172.689 207.493 207.493 172.689 207.493 129.756C207.493 86.8236 172.689 52.0199 129.756 52.0199C86.8236 52.0199 52.0199 86.8236 52.0199 129.756C52.0199 172.689 86.8236 207.493 129.756 207.493Z" fill="white"/>
<path fill-rule="evenodd" clip-rule="evenodd" d="M130.378 151.473C142.028 151.473 151.473 142.028 151.473 130.378C151.473 118.728 142.028 109.284 130.378 109.284C118.728 109.284 109.284 118.728 109.284 130.378C109.284 142.028 118.728 151.473 130.378 151.473ZM130.378 161.473C147.551 161.473 161.473 147.551 161.473 130.378C161.473 113.205 147.551 99.2836 130.378 99.2836C113.205 99.2836 99.2836 113.205 99.2836 130.378C99.2836 147.551 113.205 161.473 130.378 161.473Z" fill="white"/>
</svg>
